<svg width="30" height="30" viewBox="0 0 30 30" fill="none" xmlns="http://www.w3.org/2000/svg">
<path d="M0 7.5C0 3.35786 3.35786 0 7.5 0H22.5C26.6421 0 30 3.35786 30 7.5V22.5C30 26.6421 26.6421 30 22.5 30H7.5C3.35786 30 0 26.6421 0 22.5V7.5Z" fill="#330000"/>
<path d="M12.8818 11.3137L9.89172 21H6.71631L11.2225 8.73633H13.2356L12.8818 11.3137ZM15.3582 21L12.3596 11.3137L11.9722 8.73633H14.0105L18.542 21H15.3582ZM15.2402 16.4264V18.709H8.94836V16.4264H15.2402Z" fill="#FF9A01"/>
<path d="M22.307 11.8865V21H19.4601V11.8865H22.307ZM19.2916 9.5365C19.2916 9.1322 19.4376 8.8009 19.7296 8.5426C20.0216 8.2843 20.4006 8.15515 20.8667 8.15515C21.3328 8.15515 21.7118 8.2843 22.0038 8.5426C22.2958 8.8009 22.4418 9.1322 22.4418 9.5365C22.4418 9.9408 22.2958 10.2721 22.0038 10.5304C21.7118 10.7887 21.3328 10.9178 20.8667 10.9178C20.4006 10.9178 20.0216 10.7887 19.7296 10.5304C19.4376 10.2721 19.2916 9.9408 19.2916 9.5365Z" fill="#FF9A01"/>
</svg>
