<svg width="30" height="30" viewBox="0 0 30 30" fill="none" xmlns="http://www.w3.org/2000/svg">
<path d="M22.5 0H7.5C3.35786 0 0 3.35786 0 7.5V22.5C0 26.6421 3.35786 30 7.5 30H22.5C26.6421 30 30 26.6421 30 22.5V7.5C30 3.35786 26.6421 0 22.5 0Z" fill="white"/>
<path d="M14.9061 24.4499L21.1274 22.8524L22.4999 7.48486H7.28613L8.80488 22.8524L14.9061 24.4499Z" fill="#E44D26"/>
<path d="M8.2793 8.72607L9.5993 22.0948L14.9093 23.4823V8.72607H8.2793Z" fill="#E44D26"/>
<path d="M21.5129 8.72607H14.9092V23.4823L20.3204 22.0948L21.5129 8.72607Z" fill="#F16529"/>
<path d="M8.55371 3.06348H9.42371V4.36473H10.6425V3.06348H11.5162V6.37473H10.6425V5.07348H9.42371V6.37473H8.55371V3.06348Z" fill="black"/>
<path d="M11.8652 3.06348H14.719V3.76848H13.7215V6.37473H12.8627V3.76848H11.8652V3.06348Z" fill="black"/>
<path d="M16.1503 3.06348L16.9378 4.98723H16.9791L17.7666 3.06348H18.8503V6.37473H17.9991V4.42848H17.9728L17.2191 6.35223H16.6978L15.9478 4.41348H15.9216V6.37473H15.0703V3.06348H16.1541H16.1503Z" fill="black"/>
<path d="M19.2988 3.06348H20.1688V5.66973H21.5188V6.37473H19.3026V3.06348H19.2988Z" fill="black"/>
<path d="M17.3666 16.6309L16.9879 19.7584L14.9104 20.2909L14.8916 20.2834V22.1209L14.9104 22.1246H14.9141L18.6566 21.0371L19.2191 16.6309H19.2229L19.4629 14.7559H19.4554H17.5916H14.8916V16.6309H17.3666Z" fill="white"/>
<path d="M12.1788 19.5903L12.0138 17.6553H10.1426L10.6226 20.8803L12.3288 21.3753L14.8901 22.1215V20.284L12.1788 19.5903Z" fill="#EBEBEB"/>
<path d="M14.9104 12.2852H19.8454L20.0779 10.4102H14.9104H14.8916V12.2852H14.9104Z" fill="white"/>
<path d="M11.448 12.2852H14.568H14.8905V10.4102H14.568H11.268H9.4043L10.0343 16.6314H10.3568H11.8568H14.8905V14.7564H11.6805L11.448 12.2852Z" fill="#EBEBEB"/>
</svg>
