<svg width="30" height="30" viewBox="0 0 30 30" fill="none" xmlns="http://www.w3.org/2000/svg">
<path d="M22.5 0H7.5C3.35786 0 0 3.35786 0 7.5V22.5C0 26.6421 3.35786 30 7.5 30H22.5C26.6421 30 30 26.6421 30 22.5V7.5C30 3.35786 26.6421 0 22.5 0Z" fill="white"/>
<path d="M14.9061 24.4499L21.1274 22.8524L22.4999 7.48486H7.28613L8.80488 22.8524L14.9061 24.4499Z" fill="#E44D26"/>
<path d="M8.2793 8.72607L9.5993 22.0948L14.9093 23.4823V8.72607H8.2793Z" fill="#E44D26"/>
<path d="M21.5129 8.72607H14.9092V23.4823L20.3204 22.0948L21.5129 8.72607Z" fill="#F16529"/>
<path d="M22.5 0H7.5C3.35786 0 0 3.35786 0 7.5V22.5C0 26.6421 3.35786 30 7.5 30H22.5C26.6421 30 30 26.6421 30 22.5V7.5C30 3.35786 26.6421 0 22.5 0Z" fill="white"/>
<path d="M14.9061 24.4499L21.1274 22.8524L22.4999 7.48486H7.28613L8.80488 22.8524L14.9061 24.4499Z" fill="#264DE4"/>
<path d="M8.2793 8.72607L9.5993 22.0948L14.9093 23.4823V8.72607H8.2793Z" fill="#264DE4"/>
<path d="M21.5129 8.72607H14.9092V23.4823L20.3204 22.0948L21.5129 8.72607Z" fill="#2965F1"/>
<path d="M12.8886 6.74223H10.0986V2.87598H12.8886V3.88848H11.1111V5.72973H12.8886V6.74223Z" fill="black"/>
<path d="M16.3241 6.74223H13.3916V5.72973H15.3116V5.31723H13.3916V2.87598H16.3241V3.88848H14.4041V4.30473H16.3241V6.74223Z" fill="black"/>
<path d="M19.7627 6.74223H16.834V5.72973H18.7502V5.31723H16.834V2.87598H19.7627V3.88848H17.8465V4.30473H19.7627V6.74223Z" fill="black"/>
<path d="M9.9375 9.95996L10.1063 11.835H11.9887H14.3887L17.7262 11.8387L17.5012 14.355H14.3887H12.2137H10.3312L10.5187 16.455H12.4012H14.3887H17.3137L17.0887 18.9825L14.865 19.5525L12.6262 18.9787V18.975L12.4575 17.565H10.6313L10.7437 18.975L10.8788 20.4637L14.865 21.4912L18.8362 20.4675L19.7775 9.96371L9.9375 9.95996Z" fill="white"/>
</svg>
