<?xml version="1.0" encoding="UTF-8"?><svg xmlns="http://www.w3.org/2000/svg" xmlns:xlink="http://www.w3.org/1999/xlink" viewBox="0 0 331.54 262.2"><defs><style>.f{fill:#f3f3f3;}.g{fill:#f6f6f6;}.h{fill:#f7f7f7;}.i{fill:#f2f2f2;}.j{fill:#f9f9f9;}.k{fill:#f8f8f8;}.l{fill:#6a6f6f;}.m{fill:#010a09;}.n{fill:#030c0b;}.o{fill:#060f0e;}.p{fill:#050e0d;}.q{fill:#020b0a;}.r{fill:#696e6e;}.s{fill:#686d6d;}.t{fill:#676c6c;}.u{fill:#eeefef;}.v{fill:#ebecec;}.w{fill:#eaebeb;}.x{fill:#e9eaea;}.y{fill:#e6e7e7;}.a`{fill:#f4f4f4;}.aa{fill:#f5f5f5;}.ab{fill:#fcfcfc;}.ac{fill:#e7e8e8;}.ad{fill:#e3e4e4;}.ae{fill:#e8e9e9;}.af{fill:#edeeee;}.ag{fill:#fff;}.ah{fill:#f0f1f0;}.ai{fill:#f1f1f1;}.aj{fill:#eceded;}.ak{fill:#fefefe;}.al{fill:#fafafa;}.am{fill:#fbfbfb;}.an{fill:#e5e6e6;}.ao{fill:#e2e3e3;}.ap{fill:#eff0f0;}.aq{fill:#e4e5e5;}.ar{fill:#fdfdfd;}.as{fill:#919594;}.at{fill:#6b7070;}.au{fill:#7e8382;}.av{fill:#808484;}.aw{fill:#818585;}.ax{fill:#7d8281;}.ay{fill:#747978;}.b`{fill:#656a6a;}.ba{fill:#999d9c;}.bb{fill:#969a99;}.bc{fill:#7c8180;}.bd{fill:#989c9b;}.be{fill:#979b9a;}.bf{fill:#6c7171;}.bg{fill:#7f8483;}.bh{fill:#040d0c;}.bi{fill:#9ca09f;}.bj{fill:#a1a4a4;}.bk{fill:#929695;}.bl{fill:#9fa2a2;}.bm{fill:#848888;}.bn{fill:#939796;}.bo{fill:#b4b7b6;}.bp{fill:#b5b8b7;}.bq{fill:#b7bab9;}.br{fill:#8a8e8e;}.bs{fill:#9da0a0;}.bt{fill:#b8bbba;}.bu{fill:#8b8f8f;}.bv{fill:#9ea1a1;}.bw{fill:#a0a3a3;}.bx{fill:#8c9090;}.by{fill:#c2c4c4;}.c`{fill:#909493;}.ca{fill:#b3b6b5;}.cb{fill:#8f9393;}.cc{fill:#c1c3c3;}.cd{fill:#b6b9b8;}.ce{fill:#666b6b;}.cf{fill:#737877;}.cg{fill:#303737;}.ch{fill:#323938;}.ci{fill:#babcbc;}.cj{fill:#333a39;}.ck{fill:#8d9191;}.cl{fill:#313837;}.cm{fill:#8e9292;}.cn{fill:#b9bbbb;}.co{fill:#858989;}.cp{fill:#ced0d0;}.cq{fill:#cdcfcf;}.cr{fill:#abaeae;}.cs{fill:#a4a7a7;}.ct{fill:#a9acac;}.cu{fill:#b2b5b4;}.cv{fill:#a6a9a9;}.cw{fill:#bfc1c1;}.cx{fill:#b1b4b3;}.cy{fill:#bcbebe;}.d`{fill:#a7aaaa;}.da{fill:#afb2b2;}.db{fill:#adb0b0;}.dc{fill:#b0b3b2;}.dd{fill:#d8d9d9;}.de{fill:#a5a8a8;}.df{fill:#aeb1b1;}.dg{fill:#bbbdbd;}.dh{fill:#aaadad;}.di{fill:#c0c2c2;}.dj{fill:#bdbfbf;}.dk{fill:#bec0c0;}.dl{fill:#cccece;}.dm{fill:#cacccc;}.dn{fill:#c9cbcb;}.do{fill:#d0d2d1;}.dp{fill:#cfd1d1;}.dq{fill:#c7c9c9;}.dr{fill:#dedfdf;}.ds{fill:#dddede;}.dt{fill:#cbcdcd;}.du{fill:#d2d4d3;}.dv{fill:#d1d3d2;}.dw{fill:#c3c5c5;}.dx{fill:#c4c6c6;}.dy{fill:#d6d7d7;}.e`{fill:#dcdddd;}.ea{fill:#dbdcdc;}.eb{fill:#dadbdb;}.ec{fill:#d9dada;}.ed{fill:#d4d6d5;}.ee{fill:#acafaf;}.ef{fill:#d7d8d8;}.eg{fill:#d3d5d4;}.eh{fill:#c5c7c7;}.ei{fill:#c6c8c8;}.ej{fill:#e1e2e2;}.ek{fill:#e0e1e1;}.el{fill:#c8caca;}.em{fill:#d5d6d6;}.en{fill:#dfe0e0;}.eo{fill:#a8abab;}.ep{fill:#121a19;}.eq{fill:#111918;}.er{fill:#101818;}.es{fill:#171f1e;}.et{fill:#161e1d;}.eu{fill:#252d2c;}.ev{fill:#242c2b;}.ew{fill:#1f2726;}.ex{fill:#1e2625;}.ey{fill:#131b1a;}.f`{fill:#232b2a;}.fa{fill:#222a29;}.fb{fill:#212928;}.fc{fill:#202827;}.fd{fill:#0c1514;}.fe{fill:#0b1413;}.ff{fill:#424948;}.fg{fill:#434a49;}.fh{fill:#404746;}.fi{fill:#414847;}.fj{fill:#091211;}.fk{fill:#081110;}.fl{fill:#07100f;}.fm{fill:#151d1c;}.fn{fill:#141c1b;}.fo{fill:#1b2322;}.fp{fill:#0f1817;}.fq{fill:#0e1716;}.fr{fill:#1d2524;}.fs{fill:#1c2423;}.ft{fill:#363d3c;}.fu{fill:#373e3d;}.fv{fill:#444b4a;}.fw{fill:#192120;}.fx{fill:#18201f;}.fy{fill:#0a1312;}.g`{fill:#3e4544;}.ga{fill:#3f4645;}.gb{fill:#0d1615;}.gc{fill:#1a2221;}.gd{fill:#898d8d;}.ge{fill:#a3a6a6;}.gf{fill:#9b9f9e;}.gg{fill:#707575;}.gh{fill:#6f7474;}.gi{fill:#717675;}.gj{fill:#949897;}.gk{fill:#a2a5a5;}.gl{fill:#959998;}.gm{fill:#464d4c;}.gn{fill:#535958;}.go{fill:#868a8a;}.gp{fill:#9a9e9d;}.gq{fill:#6e7373;}.gr{fill:#888c8c;}.gs{fill:#878b8b;}.gt{fill:#6d7272;}.gu{fill:#646969;}.gv{fill:#636968;}.gw{fill:#626867;}.gx{fill:#5b6160;}.gy{fill:#28302f;}.h`{fill:#595f5e;}.ha{fill:#2a3231;}.hb{fill:#2b3332;}.hc{fill:#565c5b;}.hd{fill:#555b5a;}.he{fill:#2d3434;}.hf{fill:#5c6261;}.hg{fill:#4a5050;}.hh{fill:#474e4d;}.hi{fill:#293130;}.hj{fill:#484e4e;}.hk{fill:#2c3333;}.hl{fill:#353c3b;}.hm{fill:#39403f;}.hn{fill:#2f3636;}.ho{fill:#383f3e;}.hp{fill:#3a4140;}.hq{fill:#3b4241;}.hr{fill:#272f2e;}.hs{fill:#5a605f;}.ht{fill:#2e3535;}.hu{fill:#3d4443;}.hv{fill:#585e5d;}.hw{fill:#575d5c;}.hx{fill:#3c4342;}.hy{fill:#838787;}.i`{fill:#4c5252;}.ia{fill:#616766;}.ib{fill:#5f6564;}.ic{fill:#5e6463;}.id{fill:#494f4f;}.ie{fill:#545a59;}.if{fill:#757a79;}.ig{fill:#767b7a;}.ih{fill:#797e7d;}.ii{fill:#787d7c;}.ij{fill:#4b5151;}.ik{fill:#5d6362;}.il{fill:#606665;}.im{fill:#727776;}.in{fill:#525857;}.io{fill:#505656;}.ip{fill:#4f5555;}.iq{fill:#828686;}.ir{fill:#7a7f7e;}.is{fill:#777c7b;}.it{fill:#262e2d;}.iu{fill:#343b3a;}.iv{fill:#515756;}.iw{fill:#7b807f;}.ix{fill:#4d5353;}.iy{fill:#4e5454;}.j`{fill:#454c4b;}.ja,.jb,.jc{mix-blend-mode:color-dodge;}.jb{fill:url(#d);}.jc{fill:url(#e);}.jd{isolation:isolate;}</style><radialGradient id="d" cx="210.87" cy="118.67" fx="210.87" fy="118.67" r="68" gradientTransform="translate(-89.69 191.2) rotate(-31.11) scale(1.53 .65) skewX(2.6)" gradientUnits="userSpaceOnUse"><stop offset="0" stop-color="#fff"/><stop offset=".1" stop-color="#f1f2f2"/><stop offset=".29" stop-color="#ced0d0"/><stop offset=".55" stop-color="#959998"/><stop offset=".85" stop-color="#474e4d"/><stop offset="1" stop-color="#212928"/></radialGradient><radialGradient id="e" cx="81.62" cy="113.02" fx="81.62" fy="113.02" gradientTransform="translate(-49.38 163.86) rotate(-31.24) scale(1.36 .65) skewX(2.48)" xlink:href="#d"/></defs><g class="jd"><g id="a"/><g id="b"><g id="c"><path class="m" d="M328.08,31.44c-9.04-15.65-41.09-15.05-79-.78C226.3,11.53,196.92,0,164.84,0,92.43,0,33.74,58.69,33.74,131.1c0,6.51,.48,12.91,1.4,19.17C7.61,173.78-6.29,199.71,2.75,215.36c8.57,14.84,35.43,16.44,67.28,6.27,23.87,24.99,57.52,40.56,94.81,40.56,72.4,0,131.1-58.69,131.1-131.1,0-11.38-1.45-22.41-4.17-32.93,29.68-25.08,45.11-51.49,36.32-66.72Z"/><path class="jb" d="M329.08,31.44c-12.03-20.84-64.85-12.87-117.97,17.8-53.12,30.67-86.43,72.42-74.4,93.26,12.03,20.84,64.85,12.87,117.97-17.8,53.12-30.67,86.43-72.42,74.4-93.26Z"/><g class="ja"><circle class="m" cx="165.84" cy="131.1" r="131.1"/><circle class="q" cx="165.84" cy="131.1" r="130.92"/><circle class="n" cx="165.84" cy="131.1" r="130.74"/><circle class="bh" cx="165.84" cy="131.1" r="130.57"/><circle class="p" cx="165.84" cy="131.1" r="130.39"/><circle class="o" cx="165.84" cy="131.1" r="130.21"/><circle class="fl" cx="165.84" cy="131.1" r="130.03"/><circle class="fk" cx="165.84" cy="131.1" r="129.86"/><circle class="fj" cx="165.84" cy="131.1" r="129.68"/><circle class="fy" cx="165.84" cy="131.1" r="129.5"/><circle class="fe" cx="165.84" cy="131.1" r="129.33"/><circle class="fd" cx="165.84" cy="131.1" r="129.15"/><circle class="gb" cx="165.84" cy="131.1" r="128.97"/><circle class="fq" cx="165.84" cy="131.1" r="128.8"/><circle class="fp" cx="165.84" cy="131.1" r="128.62"/><circle class="er" cx="165.84" cy="131.1" r="128.44"/><circle class="eq" cx="165.84" cy="131.1" r="128.26"/><circle class="ep" cx="165.84" cy="131.1" r="128.09"/><circle class="ey" cx="165.84" cy="131.1" r="127.91"/><circle class="fn" cx="165.84" cy="131.1" r="127.73"/><circle class="fm" cx="165.84" cy="131.1" r="127.56"/><circle class="et" cx="165.84" cy="131.1" r="127.38"/><circle class="es" cx="165.84" cy="131.1" r="127.2"/><circle class="fx" cx="165.84" cy="131.1" r="127.02"/><circle class="fw" cx="165.84" cy="131.1" r="126.85"/><circle class="gc" cx="165.84" cy="131.1" r="126.67"/><circle class="fo" cx="165.84" cy="131.1" r="126.49"/><circle class="fs" cx="165.84" cy="131.1" r="126.32"/><circle class="fr" cx="165.84" cy="131.1" r="126.14"/><circle class="ex" cx="165.84" cy="131.1" r="125.96"/><circle class="ew" cx="165.84" cy="131.1" r="125.78"/><circle class="fc" cx="165.84" cy="131.1" r="125.61"/><circle class="fb" cx="165.84" cy="131.1" r="125.43"/><circle class="fa" cx="165.84" cy="131.1" r="125.25"/><circle class="f`" cx="165.84" cy="131.1" r="125.08"/><circle class="ev" cx="165.84" cy="131.1" r="124.9"/><circle class="eu" cx="165.84" cy="131.1" r="124.72"/><circle class="it" cx="165.84" cy="131.1" r="124.54"/><circle class="hr" cx="165.84" cy="131.1" r="124.37"/><circle class="gy" cx="165.84" cy="131.1" r="124.19"/><circle class="hi" cx="165.84" cy="131.1" r="124.01"/><circle class="ha" cx="165.84" cy="131.1" r="123.84"/><circle class="hb" cx="165.84" cy="131.1" r="123.66"/><circle class="hk" cx="165.84" cy="131.1" r="123.48"/><circle class="he" cx="165.84" cy="131.1" r="123.3"/><circle class="ht" cx="165.84" cy="131.1" r="123.13"/><circle class="hn" cx="165.84" cy="131.1" r="122.95"/><circle class="cg" cx="165.84" cy="131.1" r="122.77"/><circle class="cl" cx="165.84" cy="131.1" r="122.6"/><circle class="ch" cx="165.84" cy="131.1" r="122.42"/><circle class="cj" cx="165.84" cy="131.1" r="122.24"/><circle class="iu" cx="165.84" cy="131.1" r="122.06"/><circle class="hl" cx="165.84" cy="131.1" r="121.89"/><circle class="ft" cx="165.84" cy="131.1" r="121.71"/><circle class="fu" cx="165.84" cy="131.1" r="121.53"/><circle class="ho" cx="165.84" cy="131.1" r="121.36"/><circle class="hm" cx="165.84" cy="131.1" r="121.18"/><circle class="hp" cx="165.84" cy="131.1" r="121"/><circle class="hq" cx="165.84" cy="131.1" r="120.82"/><circle class="hx" cx="165.84" cy="131.1" r="120.65"/><circle class="hu" cx="165.84" cy="131.1" r="120.47"/><circle class="g`" cx="165.84" cy="131.1" r="120.29"/><circle class="ga" cx="165.84" cy="131.1" r="120.12"/><circle class="fh" cx="165.84" cy="131.1" r="119.94"/><circle class="fi" cx="165.84" cy="131.1" r="119.76"/><circle class="ff" cx="165.84" cy="131.1" r="119.58"/><circle class="fg" cx="165.84" cy="131.1" r="119.41"/><circle class="fv" cx="165.84" cy="131.1" r="119.23"/><circle class="j`" cx="165.84" cy="131.1" r="119.05"/><circle class="gm" cx="165.84" cy="131.1" r="118.88"/><circle class="hh" cx="165.84" cy="131.1" r="118.7"/><circle class="hj" cx="165.84" cy="131.1" r="118.52"/><circle class="id" cx="165.84" cy="131.1" r="118.35"/><circle class="hg" cx="165.84" cy="131.1" r="118.17"/><circle class="ij" cx="165.84" cy="131.1" r="117.99"/><circle class="i`" cx="165.84" cy="131.1" r="117.81"/><circle class="ix" cx="165.84" cy="131.1" r="117.64"/><circle class="iy" cx="165.84" cy="131.1" r="117.46"/><circle class="ip" cx="165.84" cy="131.1" r="117.28"/><circle class="io" cx="165.84" cy="131.1" r="117.11"/><circle class="iv" cx="165.84" cy="131.1" r="116.93"/><circle class="in" cx="165.84" cy="131.1" r="116.75"/><circle class="gn" cx="165.84" cy="131.1" r="116.57"/><circle class="ie" cx="165.84" cy="131.1" r="116.4"/><circle class="hd" cx="165.84" cy="131.1" r="116.22"/><circle class="hc" cx="165.84" cy="131.1" r="116.04"/><circle class="hw" cx="165.84" cy="131.1" r="115.87"/><circle class="hv" cx="165.84" cy="131.1" r="115.69"/><circle class="h`" cx="165.84" cy="131.1" r="115.51"/><circle class="hs" cx="165.84" cy="131.1" r="115.33"/><circle class="gx" cx="165.84" cy="131.1" r="115.16"/><circle class="hf" cx="165.84" cy="131.1" r="114.98"/><circle class="ik" cx="165.84" cy="131.1" r="114.8"/><circle class="ic" cx="165.84" cy="131.1" r="114.63"/><circle class="ib" cx="165.84" cy="131.1" r="114.45"/><circle class="il" cx="165.84" cy="131.1" r="114.27"/><circle class="ia" cx="165.84" cy="131.1" r="114.09"/><circle class="gw" cx="165.84" cy="131.1" r="113.92"/><circle class="gv" cx="165.84" cy="131.1" r="113.74"/><circle class="gu" cx="165.84" cy="131.1" r="113.56"/><circle class="b`" cx="165.84" cy="131.1" r="113.39"/><circle class="ce" cx="165.84" cy="131.1" r="113.21"/><circle class="t" cx="165.84" cy="131.1" r="113.03"/><circle class="s" cx="165.84" cy="131.1" r="112.85"/><circle class="r" cx="165.84" cy="131.1" r="112.68"/><circle class="l" cx="165.84" cy="131.1" r="112.5"/><circle class="at" cx="165.84" cy="131.1" r="112.32"/><circle class="bf" cx="165.84" cy="131.1" r="112.15"/><circle class="gt" cx="165.84" cy="131.1" r="111.97"/><circle class="gq" cx="165.84" cy="131.1" r="111.79"/><circle class="gh" cx="165.84" cy="131.1" r="111.61"/><circle class="gg" cx="165.84" cy="131.1" r="111.44"/><circle class="gi" cx="165.84" cy="131.1" r="111.26"/><circle class="im" cx="165.84" cy="131.1" r="111.08"/><circle class="cf" cx="165.84" cy="131.1" r="110.91"/><circle class="ay" cx="165.84" cy="131.1" r="110.73"/><circle class="if" cx="165.84" cy="131.1" r="110.55"/><circle class="ig" cx="165.84" cy="131.1" r="110.37"/><circle class="is" cx="165.84" cy="131.1" r="110.2"/><circle class="ii" cx="165.84" cy="131.1" r="110.02"/><circle class="ih" cx="165.84" cy="131.1" r="109.84"/><circle class="ir" cx="165.84" cy="131.1" r="109.67"/><circle class="iw" cx="165.84" cy="131.1" r="109.49"/><circle class="bc" cx="165.84" cy="131.1" r="109.31"/><circle class="ax" cx="165.84" cy="131.1" r="109.13"/><circle class="au" cx="165.84" cy="131.1" r="108.96"/><circle class="bg" cx="165.84" cy="131.1" r="108.78"/><circle class="av" cx="165.84" cy="131.1" r="108.6"/><circle class="aw" cx="165.84" cy="131.1" r="108.43"/><circle class="iq" cx="165.84" cy="131.1" r="108.25"/><circle class="hy" cx="165.84" cy="131.1" r="108.07"/><circle class="bm" cx="165.84" cy="131.1" r="107.9"/><circle class="co" cx="165.84" cy="131.1" r="107.72"/><circle class="go" cx="165.84" cy="131.1" r="107.54"/><circle class="gs" cx="165.84" cy="131.1" r="107.36"/><circle class="gr" cx="165.84" cy="131.1" r="107.19"/><circle class="gd" cx="165.84" cy="131.1" r="107.01"/><circle class="br" cx="165.84" cy="131.1" r="106.83"/><circle class="bu" cx="165.84" cy="131.1" r="106.66"/><circle class="bx" cx="165.84" cy="131.1" r="106.48"/><circle class="ck" cx="165.84" cy="131.1" r="106.3"/><circle class="cm" cx="165.84" cy="131.1" r="106.12"/><circle class="cb" cx="165.84" cy="131.1" r="105.95"/><circle class="c`" cx="165.84" cy="131.1" r="105.77"/><circle class="as" cx="165.84" cy="131.1" r="105.59"/><circle class="bk" cx="165.84" cy="131.1" r="105.42"/><circle class="bn" cx="165.84" cy="131.1" r="105.24"/><circle class="gj" cx="165.84" cy="131.1" r="105.06"/><circle class="gl" cx="165.84" cy="131.1" r="104.88"/><circle class="bb" cx="165.84" cy="131.1" r="104.71"/><circle class="be" cx="165.84" cy="131.1" r="104.53"/><circle class="bd" cx="165.84" cy="131.1" r="104.35"/><circle class="ba" cx="165.84" cy="131.1" r="104.18"/><circle class="gp" cx="165.84" cy="131.1" r="104"/><circle class="gf" cx="165.84" cy="131.1" r="103.82"/><circle class="bi" cx="165.84" cy="131.1" r="103.64"/><circle class="bs" cx="165.84" cy="131.1" r="103.47"/><circle class="bv" cx="165.84" cy="131.1" r="103.29"/><circle class="bl" cx="165.84" cy="131.1" r="103.11"/><circle class="bw" cx="165.84" cy="131.1" r="102.94"/><circle class="bj" cx="165.84" cy="131.1" r="102.76"/><circle class="gk" cx="165.84" cy="131.1" r="102.58"/><circle class="ge" cx="165.84" cy="131.1" r="102.4"/><circle class="cs" cx="165.84" cy="131.1" r="102.23"/><circle class="de" cx="165.84" cy="131.1" r="102.05"/><circle class="cv" cx="165.84" cy="131.1" r="101.87"/><circle class="d`" cx="165.84" cy="131.1" r="101.7"/><circle class="eo" cx="165.84" cy="131.1" r="101.52"/><circle class="ct" cx="165.84" cy="131.1" r="101.34"/><circle class="dh" cx="165.84" cy="131.1" r="101.16"/><circle class="cr" cx="165.84" cy="131.1" r="100.99"/><circle class="ee" cx="165.84" cy="131.1" r="100.81"/><circle class="db" cx="165.84" cy="131.1" r="100.63"/><circle class="df" cx="165.84" cy="131.1" r="100.46"/><circle class="da" cx="165.84" cy="131.1" r="100.28"/><circle class="dc" cx="165.84" cy="131.1" r="100.1"/><circle class="cx" cx="165.84" cy="131.1" r="99.92"/><circle class="cu" cx="165.84" cy="131.1" r="99.75"/><circle class="ca" cx="165.84" cy="131.1" r="99.57"/><circle class="bo" cx="165.84" cy="131.1" r="99.39"/><circle class="bp" cx="165.84" cy="131.1" r="99.22"/><circle class="cd" cx="165.84" cy="131.1" r="99.04"/><circle class="bq" cx="165.84" cy="131.1" r="98.86"/><circle class="bt" cx="165.84" cy="131.1" r="98.68"/><circle class="cn" cx="165.84" cy="131.1" r="98.51"/><circle class="ci" cx="165.84" cy="131.1" r="98.33"/><circle class="dg" cx="165.84" cy="131.1" r="98.15"/><circle class="cy" cx="165.84" cy="131.1" r="97.98"/><circle class="dj" cx="165.84" cy="131.1" r="97.8"/><circle class="dk" cx="165.84" cy="131.1" r="97.62"/><circle class="cw" cx="165.84" cy="131.1" r="97.45"/><circle class="di" cx="165.84" cy="131.1" r="97.27"/><circle class="cc" cx="165.84" cy="131.1" r="97.09"/><circle class="by" cx="165.84" cy="131.1" r="96.91"/><circle class="dw" cx="165.84" cy="131.1" r="96.74"/><circle class="dx" cx="165.84" cy="131.1" r="96.56"/><circle class="eh" cx="165.84" cy="131.1" r="96.38"/><circle class="ei" cx="165.84" cy="131.1" r="96.21"/><circle class="dq" cx="165.84" cy="131.1" r="96.03"/><circle class="el" cx="165.84" cy="131.1" r="95.85"/><circle class="dn" cx="165.84" cy="131.1" r="95.67"/><circle class="dm" cx="165.84" cy="131.1" r="95.5"/><circle class="dt" cx="165.84" cy="131.1" r="95.32"/><circle class="dl" cx="165.84" cy="131.1" r="95.14"/><circle class="cq" cx="165.84" cy="131.1" r="94.97"/><circle class="cp" cx="165.84" cy="131.1" r="94.79"/><circle class="dp" cx="165.84" cy="131.1" r="94.61"/><circle class="do" cx="165.84" cy="131.1" r="94.43"/><circle class="dv" cx="165.84" cy="131.1" r="94.26"/><circle class="du" cx="165.84" cy="131.1" r="94.08"/><circle class="eg" cx="165.84" cy="131.1" r="93.9"/><circle class="ed" cx="165.84" cy="131.1" r="93.73"/><circle class="em" cx="165.84" cy="131.1" r="93.55"/><circle class="dy" cx="165.84" cy="131.1" r="93.37"/><circle class="ef" cx="165.84" cy="131.1" r="93.19"/><circle class="dd" cx="165.84" cy="131.1" r="93.02"/><circle class="ec" cx="165.84" cy="131.1" r="92.84"/><circle class="eb" cx="165.84" cy="131.1" r="92.66"/><circle class="ea" cx="165.84" cy="131.1" r="92.49"/><circle class="e`" cx="165.84" cy="131.1" r="92.31"/><circle class="ds" cx="165.84" cy="131.1" r="92.13"/><circle class="dr" cx="165.84" cy="131.1" r="91.95"/><circle class="en" cx="165.84" cy="131.1" r="91.78"/><circle class="ek" cx="165.84" cy="131.1" r="91.6"/><circle class="ej" cx="165.84" cy="131.1" r="91.42"/><circle class="ao" cx="165.84" cy="131.1" r="91.25"/><circle class="ad" cx="165.84" cy="131.1" r="91.07"/><circle class="aq" cx="165.84" cy="131.1" r="90.89"/><circle class="an" cx="165.84" cy="131.1" r="90.71"/><circle class="y" cx="165.84" cy="131.1" r="90.54"/><circle class="ac" cx="165.84" cy="131.1" r="90.36"/><circle class="ae" cx="165.84" cy="131.1" r="90.18"/><circle class="x" cx="165.84" cy="131.1" r="90.01"/><circle class="w" cx="165.84" cy="131.1" r="89.83"/><circle class="v" cx="165.84" cy="131.1" r="89.65"/><circle class="aj" cx="165.84" cy="131.1" r="89.47"/><circle class="af" cx="165.84" cy="131.1" r="89.3"/><circle class="u" cx="165.84" cy="131.1" r="89.12"/><circle class="ap" cx="165.84" cy="131.1" r="88.94"/><circle class="ah" cx="165.84" cy="131.1" r="88.77"/><circle class="ai" cx="165.84" cy="131.1" r="88.59"/><circle class="i" cx="165.84" cy="131.1" r="88.41"/><circle class="f" cx="165.84" cy="131.1" r="88.23"/><circle class="a`" cx="165.84" cy="131.1" r="88.06"/><circle class="aa" cx="165.84" cy="131.1" r="87.88"/><circle class="g" cx="165.84" cy="131.1" r="87.7"/><circle class="h" cx="165.84" cy="131.1" r="87.53"/><circle class="k" cx="165.84" cy="131.1" r="87.35"/><circle class="j" cx="165.84" cy="131.1" r="87.17"/><circle class="al" cx="165.84" cy="131.1" r="87"/><circle class="am" cx="165.84" cy="131.1" r="86.82"/><circle class="ab" cx="165.84" cy="131.1" r="86.64"/><circle class="ar" cx="165.84" cy="131.1" r="86.46"/><circle class="ak" cx="165.84" cy="131.1" r="86.29"/><circle class="ag" cx="165.84" cy="131.1" r="86.11"/></g><path class="jc" d="M175.08,116.44c-12.03-20.84-60.14-15.59-107.45,11.73C20.32,155.49-8.28,194.52,3.75,215.36c12.03,20.84,60.14,15.59,107.45-11.73,47.31-27.32,75.91-66.35,63.88-87.19Z"/><circle class="m" cx="165.84" cy="131.1" r="85.82"/></g></g></g></svg>