<svg width="30" height="30" viewBox="0 0 30 30" fill="none" xmlns="http://www.w3.org/2000/svg">
<rect width="30" height="30" rx="7" fill="#21232A"/>
<path fill-rule="evenodd" clip-rule="evenodd" d="M4.25251 13.8356C3.70226 14.2692 3.5 14.6664 3.5 14.9998C3.5 15.3333 3.70226 15.7305 4.25251 16.1641C4.79712 16.5933 5.61616 17.0017 6.67283 17.3539C8.78094 18.0566 11.7251 18.4998 15 18.4998C18.2749 18.4998 21.2191 18.0566 23.3272 17.3539C24.3838 17.0017 25.2029 16.5933 25.7475 16.1641C26.2977 15.7305 26.5 15.3333 26.5 14.9998C26.5 14.6664 26.2977 14.2692 25.7475 13.8356C25.2029 13.4064 24.3838 12.998 23.3272 12.6457C21.2191 11.943 18.2749 11.4998 15 11.4998C11.7251 11.4998 8.78094 11.943 6.67283 12.6457C5.61616 12.998 4.79712 13.4064 4.25251 13.8356ZM6.3566 11.6971C8.59164 10.9521 11.6475 10.4998 15 10.4998C18.3525 10.4998 21.4084 10.9521 23.6434 11.6971C24.7583 12.0687 25.6966 12.5222 26.3665 13.0501C27.0307 13.5736 27.5 14.2287 27.5 14.9998C27.5 15.771 27.0307 16.4261 26.3665 16.9495C25.6966 17.4774 24.7583 17.931 23.6434 18.3026C21.4084 19.0476 18.3525 19.4998 15 19.4998C11.6475 19.4998 8.59164 19.0476 6.3566 18.3026C5.2417 17.931 4.30339 17.4774 3.63353 16.9495C2.96931 16.4261 2.5 15.771 2.5 14.9998C2.5 14.2287 2.96931 13.5736 3.63353 13.0501C4.30339 12.5222 5.2417 12.0687 6.3566 11.6971Z" fill="#61DAFB"/>
<path fill-rule="evenodd" clip-rule="evenodd" d="M21.3818 6.27461C21.2814 5.58126 21.0385 5.20749 20.7498 5.04078C20.461 4.87407 20.0159 4.85063 19.3652 5.11034C18.7212 5.36738 17.958 5.8725 17.1247 6.61149C15.462 8.08582 13.6061 10.4139 11.9687 13.2501C10.3312 16.0862 9.24298 18.8575 8.79748 21.0346C8.57418 22.1258 8.51833 23.0393 8.61773 23.7255C8.71815 24.4189 8.96102 24.7927 9.24977 24.9594C9.53852 25.1261 9.98364 25.1495 10.6343 24.8898C11.2783 24.6328 12.0415 24.1276 12.8749 23.3887C14.5375 21.9143 16.3934 19.5862 18.0309 16.7501C19.6683 13.9139 20.7566 11.1426 21.202 8.96558C21.4253 7.87437 21.4812 6.96086 21.3818 6.27461ZM22.1817 9.16606C21.7094 11.4742 20.5731 14.3467 18.8969 17.2501C17.2206 20.1534 15.3011 22.5738 13.5384 24.1369C12.6591 24.9166 11.7971 25.5024 11.005 25.8186C10.2196 26.1321 9.4176 26.211 8.74977 25.8254C8.08193 25.4398 7.74928 24.7058 7.62805 23.8689C7.5058 23.0248 7.58218 21.9854 7.81779 20.8341C8.29011 18.526 9.4264 15.6534 11.1027 12.7501C12.7789 9.84673 14.6985 7.42638 16.4612 5.86329C17.3405 5.08357 18.2024 4.49774 18.9945 4.18158C19.78 3.86808 20.5819 3.78918 21.2498 4.17476C21.9176 4.56033 22.2503 5.29431 22.3715 6.13127C22.4937 6.97534 22.4174 8.01471 22.1817 9.16606Z" fill="#61DAFB"/>
<path fill-rule="evenodd" clip-rule="evenodd" d="M19.3647 24.8898C20.0154 25.1495 20.4605 25.1261 20.7493 24.9594C21.038 24.7927 21.2809 24.4189 21.3813 23.7255C21.4807 23.0393 21.4248 22.1258 21.2015 21.0346C20.756 18.8575 19.6678 16.0862 18.0303 13.2501C16.3929 10.4139 14.537 8.08582 12.8744 6.61149C12.041 5.8725 11.2778 5.36738 10.6338 5.11034C9.98313 4.85063 9.53801 4.87407 9.24926 5.04078C8.96051 5.20749 8.71764 5.58126 8.61722 6.27461C8.51782 6.96086 8.57367 7.87437 8.79698 8.96558C9.24247 11.1426 10.3307 13.9139 11.9682 16.7501C13.6056 19.5862 15.4615 21.9143 17.1241 23.3887C17.9575 24.1276 18.7207 24.6328 19.3647 24.8898ZM16.4607 24.1369C14.698 22.5738 12.7784 20.1534 11.1021 17.2501C9.42589 14.3467 8.2896 11.4742 7.81728 9.16606C7.58167 8.01471 7.50529 6.97534 7.62754 6.13127C7.74877 5.29431 8.08142 4.56033 8.74926 4.17476C9.41709 3.78918 10.2191 3.86808 11.0045 4.18158C11.7966 4.49774 12.6585 5.08357 13.5378 5.86329C15.3006 7.42638 17.2201 9.84673 18.8964 12.7501C20.5726 15.6534 21.7089 18.526 22.1812 20.8341C22.4168 21.9854 22.4932 23.0248 22.371 23.8689C22.2497 24.7058 21.9171 25.4398 21.2493 25.8254C20.5814 26.211 19.7795 26.1321 18.994 25.8186C18.2019 25.5024 17.34 24.9166 16.4607 24.1369Z" fill="#61DAFB"/>
<circle cx="15" cy="15" r="2" fill="#61DAFB"/>
</svg>
