<svg width="30" height="30" viewBox="0 0 30 30" fill="none" xmlns="http://www.w3.org/2000/svg">
<path d="M22.5 0H7.5C3.35786 0 0 3.35786 0 7.5V22.5C0 26.6421 3.35786 30 7.5 30H22.5C26.6421 30 30 26.6421 30 22.5V7.5C30 3.35786 26.6421 0 22.5 0Z" fill="#FFC928"/>
<path d="M11.5361 27.2517C10.5761 27.2517 9.76006 27.0597 9.08806 26.6757C8.41606 26.2797 7.85806 25.6917 7.41406 24.9117L9.23206 23.5617C9.49606 24.0417 9.79606 24.3957 10.1321 24.6237C10.4681 24.8397 10.8281 24.9477 11.2121 24.9477C11.8001 24.9477 12.2441 24.7677 12.5441 24.4077C12.8441 24.0477 12.9941 23.4057 12.9941 22.4817V13.6617H15.6581V22.6977C15.6581 23.5377 15.5141 24.3057 15.2261 25.0017C14.9381 25.6857 14.4881 26.2317 13.8761 26.6397C13.2761 27.0477 12.4961 27.2517 11.5361 27.2517Z" fill="black"/>
<path d="M22.8465 27.2517C21.9585 27.2517 21.0885 27.0837 20.2365 26.7477C19.3845 26.4117 18.6345 25.9317 17.9865 25.3077L19.5165 23.4717C19.9845 23.9157 20.5185 24.2757 21.1185 24.5517C21.7305 24.8157 22.3245 24.9477 22.9005 24.9477C23.5965 24.9477 24.1245 24.8097 24.4845 24.5337C24.8445 24.2577 25.0245 23.8857 25.0245 23.4177C25.0245 23.0817 24.9345 22.8177 24.7545 22.6257C24.5865 22.4217 24.3525 22.2417 24.0525 22.0857C23.7525 21.9297 23.4045 21.7737 23.0085 21.6177L21.2445 20.8437C20.8005 20.6637 20.3685 20.4237 19.9485 20.1237C19.5405 19.8117 19.1985 19.4217 18.9225 18.9537C18.6585 18.4857 18.5265 17.9277 18.5265 17.2797C18.5265 16.5477 18.7245 15.8937 19.1205 15.3177C19.5165 14.7417 20.0625 14.2857 20.7585 13.9497C21.4545 13.6017 22.2465 13.4277 23.1345 13.4277C23.9265 13.4277 24.6885 13.5777 25.4205 13.8777C26.1525 14.1777 26.7885 14.6037 27.3285 15.1557L25.9785 16.8117C25.5585 16.4637 25.1205 16.1937 24.6645 16.0017C24.2085 15.8097 23.6985 15.7137 23.1345 15.7137C22.5585 15.7137 22.0965 15.8397 21.7485 16.0917C21.4125 16.3317 21.2445 16.6737 21.2445 17.1177C21.2445 17.4297 21.3405 17.6877 21.5325 17.8917C21.7245 18.0957 21.9765 18.2757 22.2885 18.4317C22.6005 18.5757 22.9425 18.7257 23.3145 18.8817L25.0605 19.5837C25.6005 19.7997 26.0685 20.0697 26.4645 20.3937C26.8725 20.7177 27.1845 21.1077 27.4005 21.5637C27.6285 22.0197 27.7425 22.5717 27.7425 23.2197C27.7425 23.9397 27.5445 24.6057 27.1485 25.2177C26.7645 25.8297 26.2065 26.3217 25.4745 26.6937C24.7545 27.0657 23.8785 27.2517 22.8465 27.2517Z" fill="black"/>
</svg>
