<svg width="30" height="30" viewBox="0 0 30 30" fill="none" xmlns="http://www.w3.org/2000/svg">
<path d="M0 7.5C0 3.35786 3.35786 0 7.5 0H22.5C26.6421 0 30 3.35786 30 7.5V22.5C30 26.6421 26.6421 30 22.5 30H7.5C3.35786 30 0 26.6421 0 22.5V7.5Z" fill="#001E36"/>
<path d="M10.7037 16.8391H7.65466V14.5565H10.7037C11.1193 14.5565 11.4562 14.4863 11.7145 14.3459C11.9728 14.2056 12.1609 14.0118 12.2788 13.7648C12.4023 13.5121 12.4641 13.2285 12.4641 12.9141C12.4641 12.5771 12.4023 12.2655 12.2788 11.9791C12.1609 11.6927 11.9728 11.4625 11.7145 11.2885C11.4562 11.1088 11.1193 11.0189 10.7037 11.0189H8.76648V21H5.81006V8.73633H10.7037C11.6864 8.73633 12.5315 8.91602 13.239 9.27539C13.9521 9.63477 14.4996 10.1289 14.8815 10.7578C15.2633 11.3811 15.4542 12.0942 15.4542 12.8972C15.4542 13.689 15.2633 14.3796 14.8815 14.9692C14.4996 15.5588 13.9521 16.0193 13.239 16.3506C12.5315 16.6763 11.6864 16.8391 10.7037 16.8391Z" fill="#31A8FF"/>
<path d="M21.6871 18.4395C21.6871 18.2822 21.6338 18.1475 21.5271 18.0352C21.426 17.9172 21.2463 17.8105 20.988 17.7151C20.7297 17.614 20.3676 17.5129 19.9015 17.4119C19.4579 17.3164 19.0396 17.1901 18.6465 17.0328C18.259 16.8756 17.9193 16.6847 17.6273 16.4601C17.3353 16.2355 17.1051 15.9688 16.9366 15.6599C16.7738 15.3511 16.6924 14.9973 16.6924 14.5986C16.6924 14.2112 16.7738 13.8462 16.9366 13.5037C17.1051 13.1555 17.3494 12.8495 17.6694 12.5856C17.9951 12.316 18.391 12.1055 18.8571 11.9539C19.3231 11.7966 19.8538 11.718 20.449 11.718C21.2688 11.718 21.9763 11.8444 22.5715 12.097C23.1667 12.3441 23.6244 12.6923 23.9445 13.1415C24.2701 13.5851 24.433 14.0989 24.433 14.6829H21.5945C21.5945 14.4526 21.5552 14.2561 21.4766 14.0933C21.4036 13.9304 21.2828 13.8069 21.1144 13.7227C20.9459 13.6328 20.7213 13.5879 20.4406 13.5879C20.244 13.5879 20.0643 13.6244 19.9015 13.6974C19.7443 13.7704 19.6179 13.8715 19.5225 14.0006C19.427 14.1298 19.3793 14.2814 19.3793 14.4554C19.3793 14.579 19.4073 14.6913 19.4635 14.7924C19.5253 14.8878 19.6179 14.9777 19.7415 15.0619C19.865 15.1405 20.0222 15.2135 20.2131 15.2809C20.4041 15.3427 20.6343 15.3988 20.9038 15.4493C21.5159 15.5616 22.0886 15.7217 22.6221 15.9294C23.1555 16.1372 23.5879 16.432 23.9192 16.8138C24.2561 17.1957 24.4246 17.7095 24.4246 18.3552C24.4246 18.7595 24.3319 19.1329 24.1466 19.4755C23.9613 19.8124 23.6946 20.11 23.3464 20.3683C22.9983 20.621 22.58 20.8175 22.0914 20.9579C21.6029 21.0983 21.0526 21.1685 20.4406 21.1685C19.5702 21.1685 18.8346 21.014 18.2338 20.7052C17.6329 20.3907 17.1781 19.9977 16.8693 19.526C16.566 19.0487 16.4144 18.5658 16.4144 18.0773H19.0592C19.0704 18.358 19.1378 18.5883 19.2614 18.7679C19.3905 18.9476 19.5618 19.0796 19.7751 19.1638C19.9885 19.248 20.2356 19.2902 20.5164 19.2902C20.7747 19.2902 20.988 19.2537 21.1565 19.1807C21.3306 19.1077 21.4625 19.0094 21.5524 18.8859C21.6422 18.7567 21.6871 18.6079 21.6871 18.4395Z" fill="#31A8FF"/>
</svg>
