<svg width="30" height="30" viewBox="0 0 30 30" fill="none" xmlns="http://www.w3.org/2000/svg">
<path d="M0 7.5C0 3.35786 3.35786 0 7.5 0H22.5C26.6421 0 30 3.35786 30 7.5V22.5C30 26.6421 26.6421 30 22.5 30H7.5C3.35786 30 0 26.6421 0 22.5V7.5Z" fill="#1E1E1E"/>
<path d="M8.25 8.25C8.25 6.38604 9.76104 4.875 11.625 4.875H15V11.625H11.625C9.76104 11.625 8.25 10.114 8.25 8.25Z" fill="#F24E1E"/>
<path d="M8.25 15C8.25 13.136 9.76104 11.625 11.625 11.625H15V18.375H11.625C9.76104 18.375 8.25 16.864 8.25 15Z" fill="#A259FF"/>
<path d="M8.25 21.75C8.25 19.886 9.76104 18.375 11.625 18.375H15V21.75C15 23.614 13.489 25.125 11.625 25.125C9.76104 25.125 8.25 23.614 8.25 21.75Z" fill="#0ACF83"/>
<path d="M15 4.875H18.375C20.239 4.875 21.75 6.38604 21.75 8.25C21.75 10.114 20.239 11.625 18.375 11.625H15V4.875Z" fill="#FF7262"/>
<path d="M15 15C15 13.136 16.511 11.625 18.375 11.625C20.239 11.625 21.75 13.136 21.75 15C21.75 16.864 20.239 18.375 18.375 18.375C16.511 18.375 15 16.864 15 15Z" fill="#1ABCFE"/>
</svg>
