<svg width="30" height="30" viewBox="0 0 30 30" fill="none" xmlns="http://www.w3.org/2000/svg">
<path d="M22.5 0H7.5C3.35786 0 0 3.35786 0 7.5V22.5C0 26.6421 3.35786 30 7.5 30H22.5C26.6421 30 30 26.6421 30 22.5V7.5C30 3.35786 26.6421 0 22.5 0Z" fill="white"/>
<path d="M14.9061 24.4499L21.1274 22.8524L22.4999 7.48486H7.28613L8.80488 22.8524L14.9061 24.4499Z" fill="#E44D26"/>
<path d="M8.2793 8.72607L9.5993 22.0948L14.9093 23.4823V8.72607H8.2793Z" fill="#E44D26"/>
<path d="M21.5129 8.72607H14.9092V23.4823L20.3204 22.0948L21.5129 8.72607Z" fill="#F16529"/>
<path d="M22.5 0H7.5C3.35786 0 0 3.35786 0 7.5V22.5C0 26.6421 3.35786 30 7.5 30H22.5C26.6421 30 30 26.6421 30 22.5V7.5C30 3.35786 26.6421 0 22.5 0Z" fill="white"/>
<path d="M14.9061 24.4499L21.1274 22.8524L22.4999 7.48486H7.28613L8.80488 22.8524L14.9061 24.4499Z" fill="#EACA31"/>
<path d="M8.2793 8.72607L9.5993 22.0948L14.9093 23.4823V8.72607H8.2793Z" fill="#EACA31"/>
<path d="M21.5129 8.72607H14.9092V23.4823L20.3204 22.0948L21.5129 8.72607Z" fill="#FFDE24"/>
<path d="M14.4454 22.1852L10.1966 20.9027L9.92285 17.9477L11.5391 18.0902L11.6329 19.5752L12.7579 19.9127V10.2227H14.4454V22.1852Z" fill="white"/>
<path d="M15.5619 22.0798L15.5357 20.4298L17.8007 19.8598L18.1719 16.0311H15.3369V10.2261H20.5307L20.2494 11.9136H17.0244V14.3436H20.0319L19.3607 21.2473L15.5619 22.0798Z" fill="white"/>
<path d="M7.00434 3.27035V5.1191C7.00434 5.28785 6.96684 5.43785 6.89184 5.5616C6.81684 5.68535 6.71184 5.7866 6.57684 5.8541C6.44184 5.9216 6.28434 5.95535 6.10809 5.95535C5.94309 5.95535 5.79684 5.92535 5.66934 5.8691C5.54184 5.81285 5.43684 5.72285 5.36559 5.6066C5.29434 5.49035 5.25684 5.34785 5.25684 5.1791H5.80434C5.80434 5.2841 5.83434 5.36285 5.89434 5.42285C5.95434 5.48285 6.03309 5.51285 6.13059 5.51285C6.23559 5.51285 6.31434 5.4791 6.37059 5.4116C6.42684 5.3441 6.45309 5.2466 6.45309 5.11535V3.2666H7.00059L7.00434 3.27035Z" fill="black"/>
<path d="M7.5518 4.91646C7.69055 4.82271 7.8668 4.76647 8.0843 4.75521C8.2193 4.74771 8.3843 4.73646 8.5793 4.72896V4.56771C8.5793 4.48521 8.5493 4.42146 8.49305 4.37271C8.4368 4.32396 8.3618 4.30146 8.26055 4.30146C8.17055 4.30146 8.09555 4.32021 8.0393 4.36146C7.98305 4.40271 7.94555 4.45522 7.93055 4.52272H7.41305C7.4243 4.40647 7.46555 4.30146 7.53305 4.20771C7.60055 4.11396 7.7018 4.04271 7.82555 3.98646C7.9493 3.93021 8.0993 3.90771 8.2718 3.90771C8.4218 3.90771 8.5643 3.93021 8.6918 3.97896C8.8193 4.02771 8.92055 4.09896 8.9993 4.20021C9.07805 4.30146 9.11555 4.42896 9.11555 4.57896V5.91771H8.6018V5.64397H8.5868C8.5343 5.74146 8.4593 5.81646 8.3618 5.87271C8.2643 5.92896 8.1443 5.95521 8.00555 5.95521C7.8743 5.95521 7.7618 5.93271 7.66055 5.88771C7.5593 5.84271 7.4843 5.77522 7.42805 5.68896C7.3718 5.60272 7.3418 5.49022 7.3418 5.36272C7.3418 5.15646 7.4093 5.00647 7.54805 4.91272L7.5518 4.91646ZM7.94555 5.52396C8.0018 5.56521 8.07305 5.58397 8.1593 5.58397C8.23805 5.58397 8.31305 5.56897 8.3768 5.53522C8.44055 5.50147 8.4893 5.45646 8.5268 5.40021C8.5643 5.34396 8.5793 5.28021 8.5793 5.21271V5.06647C8.52305 5.06647 8.4518 5.07021 8.36555 5.07396C8.2793 5.07771 8.21555 5.08521 8.17055 5.08896C8.0768 5.10021 8.0018 5.12646 7.94555 5.16771C7.8893 5.20896 7.86305 5.27271 7.86305 5.34772C7.86305 5.42272 7.8893 5.47897 7.94555 5.52022V5.52396Z" fill="black"/>
<path d="M10.6038 5.92158H9.99633L9.29883 3.93408H9.86883L10.2851 5.36283H10.3076L10.7238 3.93408H11.2976L10.5963 5.92158H10.6038Z" fill="black"/>
<path d="M11.6239 4.91646C11.7627 4.82271 11.9389 4.76647 12.1564 4.75521C12.2914 4.74771 12.4564 4.73646 12.6514 4.72896V4.56771C12.6514 4.48521 12.6214 4.42146 12.5652 4.37271C12.5089 4.32396 12.4339 4.30146 12.3327 4.30146C12.2427 4.30146 12.1677 4.32021 12.1114 4.36146C12.0552 4.39896 12.0177 4.45522 12.0027 4.52272H11.4852C11.4964 4.40647 11.5377 4.30146 11.6052 4.20771C11.6727 4.11396 11.7739 4.04271 11.8977 3.98646C12.0252 3.93396 12.1714 3.90771 12.3439 3.90771C12.4939 3.90771 12.6364 3.93021 12.7639 3.97896C12.8914 4.02771 12.9927 4.09896 13.0714 4.20021C13.1502 4.30146 13.1877 4.42896 13.1877 4.57896V5.91771H12.6739V5.64397H12.6589C12.6064 5.74146 12.5314 5.81646 12.4339 5.87271C12.3364 5.92896 12.2164 5.95521 12.0739 5.95521C11.9427 5.95521 11.8302 5.93271 11.7289 5.88771C11.6277 5.84271 11.5527 5.77522 11.4964 5.68896C11.4402 5.60272 11.4102 5.49022 11.4102 5.36272C11.4102 5.15646 11.4777 5.00647 11.6164 4.91272L11.6239 4.91646ZM12.0177 5.52396C12.0702 5.56521 12.1452 5.58397 12.2314 5.58397C12.3102 5.58397 12.3852 5.56897 12.4489 5.53522C12.5127 5.50147 12.5614 5.45646 12.5989 5.40021C12.6327 5.34396 12.6514 5.28021 12.6514 5.21271V5.06647C12.5952 5.06647 12.5239 5.07021 12.4377 5.07396C12.3514 5.07771 12.2877 5.08521 12.2427 5.08896C12.1489 5.10021 12.0702 5.12646 12.0177 5.16771C11.9652 5.20896 11.9352 5.27271 11.9352 5.34772C11.9352 5.42272 11.9614 5.47897 12.0177 5.52022V5.52396Z" fill="black"/>
<path d="M15.778 3.78414C15.6992 3.72414 15.5905 3.69789 15.4592 3.69789C15.3692 3.69789 15.2905 3.71289 15.223 3.73539C15.1592 3.76164 15.1067 3.79914 15.073 3.84414C15.0392 3.88914 15.0205 3.94539 15.0205 4.00164C15.0205 4.08789 15.058 4.15539 15.1367 4.20789C15.2155 4.26039 15.3167 4.29789 15.4442 4.32789L15.6805 4.38789C15.9242 4.44414 16.1192 4.53414 16.2617 4.66164C16.4042 4.78914 16.4755 4.95789 16.4755 5.16789C16.4755 5.32914 16.4342 5.47164 16.3517 5.59164C16.2692 5.71164 16.153 5.80164 15.9992 5.86539C15.8455 5.92914 15.6617 5.96289 15.4517 5.96289C15.2417 5.96289 15.0505 5.92914 14.893 5.86539C14.7355 5.79789 14.6117 5.70039 14.5255 5.57289C14.4392 5.44539 14.3905 5.28789 14.3867 5.10039H14.923C14.9305 5.23164 14.983 5.32914 15.0767 5.40039C15.1705 5.46789 15.2942 5.50539 15.4442 5.50539C15.538 5.50539 15.6242 5.49039 15.6955 5.46414C15.7667 5.43789 15.823 5.39664 15.8605 5.34789C15.898 5.29914 15.9205 5.23914 15.9205 5.17539C15.9205 5.08914 15.883 5.02164 15.8117 4.97289C15.7367 4.92414 15.6242 4.87914 15.4667 4.83789L15.178 4.76664C14.698 4.64664 14.458 4.40664 14.458 4.04664C14.458 3.88914 14.503 3.74664 14.5855 3.62664C14.6717 3.50664 14.7917 3.41289 14.9455 3.34539C15.0992 3.27789 15.2717 3.24414 15.463 3.24414C15.6542 3.24414 15.8267 3.27789 15.973 3.34539C16.1192 3.41289 16.2355 3.50664 16.318 3.62664C16.4005 3.74664 16.4417 3.88539 16.4455 4.03914H15.9167C15.9055 3.93414 15.8605 3.85164 15.778 3.79539V3.78414Z" fill="black"/>
<path d="M17.2057 5.83146C17.0595 5.74521 16.947 5.62521 16.8682 5.46771C16.7895 5.31021 16.752 5.13396 16.752 4.93146C16.752 4.72896 16.7932 4.54896 16.8682 4.39521C16.947 4.24146 17.0595 4.12146 17.2057 4.03521C17.352 3.94896 17.5245 3.90771 17.7232 3.90771C17.892 3.90771 18.042 3.93771 18.1732 4.00146C18.3045 4.06521 18.4057 4.15146 18.4807 4.26771C18.5557 4.38021 18.597 4.51521 18.6045 4.66521H18.0945C18.0757 4.56396 18.0382 4.48146 17.9745 4.42146C17.9107 4.36146 17.8282 4.33146 17.7307 4.33146C17.6445 4.33146 17.5695 4.35396 17.502 4.40271C17.4382 4.45146 17.3857 4.51896 17.352 4.60896C17.3182 4.69896 17.2995 4.80771 17.2995 4.92771C17.2995 5.04771 17.3182 5.16396 17.352 5.25396C17.3857 5.34396 17.4382 5.41146 17.502 5.46021C17.5657 5.50897 17.6445 5.53146 17.7307 5.53146C17.8282 5.53146 17.907 5.50146 17.9745 5.44521C18.042 5.38897 18.0832 5.30646 18.0982 5.20146H18.6082C18.6007 5.35146 18.5595 5.48271 18.4845 5.59896C18.4095 5.71521 18.3082 5.80146 18.1807 5.86896C18.0495 5.93271 17.8995 5.96646 17.727 5.96646C17.5282 5.96646 17.3557 5.92146 17.2095 5.83521L17.2057 5.83146Z" fill="black"/>
<path d="M18.9412 3.9343H19.4662V4.2793H19.4888C19.5225 4.1593 19.5863 4.06555 19.6688 4.0018C19.7513 3.93805 19.8525 3.9043 19.9688 3.9043C20.0325 3.9043 20.0887 3.9118 20.1412 3.92305V4.4068C20.115 4.3993 20.0775 4.3918 20.0325 4.38805C19.9875 4.3843 19.9463 4.38055 19.9088 4.38055C19.83 4.38055 19.755 4.3993 19.6912 4.43305C19.6275 4.4668 19.575 4.5193 19.5375 4.5793C19.5 4.6393 19.4813 4.7143 19.4813 4.79305V5.92555H18.9375V3.93805L18.9412 3.9343Z" fill="black"/>
<path d="M20.523 3.63777C20.478 3.61152 20.4405 3.57777 20.4143 3.53652C20.388 3.49527 20.373 3.45027 20.373 3.40152C20.373 3.35277 20.388 3.30402 20.4143 3.26277C20.4405 3.22152 20.478 3.18777 20.523 3.16152C20.568 3.13527 20.6168 3.12402 20.673 3.12402C20.7293 3.12402 20.7743 3.13527 20.8193 3.16152C20.8643 3.18777 20.9018 3.22152 20.928 3.26277C20.9543 3.30402 20.9693 3.35277 20.9693 3.40152C20.9693 3.45027 20.9543 3.49527 20.928 3.53652C20.9018 3.57777 20.8643 3.61152 20.8193 3.63777C20.7743 3.66402 20.7255 3.67527 20.673 3.67527C20.6205 3.67527 20.568 3.66402 20.523 3.63777ZM20.403 3.93402H20.9468V5.92152H20.403V3.93402Z" fill="black"/>
<path d="M21.3652 3.93396H21.9015V4.26771H21.924C21.969 4.16646 22.0365 4.08396 22.1302 4.01271C22.224 3.94146 22.344 3.90771 22.494 3.90771C22.644 3.90771 22.779 3.94521 22.9027 4.02396C23.0265 4.10271 23.1202 4.21521 23.1915 4.36896C23.2627 4.52271 23.3002 4.71021 23.3002 4.92771C23.3002 5.14521 23.2665 5.32896 23.1952 5.48271C23.124 5.63646 23.0302 5.75271 22.9065 5.83521C22.7865 5.91396 22.6477 5.95521 22.494 5.95521C22.3402 5.95521 22.2277 5.92146 22.134 5.85396C22.0402 5.78646 21.9727 5.70396 21.9277 5.60271H21.9127V6.66772H21.369V3.93396H21.3652ZM21.9465 5.23896C21.9802 5.32896 22.029 5.39646 22.0927 5.44896C22.1565 5.50146 22.2315 5.52396 22.3215 5.52396C22.4565 5.52396 22.5615 5.46771 22.6365 5.36271C22.7115 5.25396 22.7452 5.10771 22.7452 4.92771C22.7452 4.74771 22.7077 4.60896 22.6365 4.50021C22.5615 4.39521 22.4565 4.34271 22.3215 4.34271C22.1865 4.34271 22.0852 4.39521 22.0102 4.50021C21.9352 4.60521 21.9015 4.74771 21.9015 4.93146C21.9015 5.05146 21.9165 5.15646 21.9502 5.24646L21.9465 5.23896Z" fill="black"/>
<path d="M24.6928 4.33926H24.3178V5.31051C24.3178 5.38551 24.3328 5.43426 24.3666 5.46426C24.4003 5.49426 24.4453 5.50926 24.5053 5.51301C24.5841 5.51301 24.6553 5.51301 24.7228 5.50176V5.92926C24.6591 5.94051 24.5616 5.94801 24.4341 5.94801C24.2316 5.94801 24.0703 5.89926 23.9541 5.80551C23.8378 5.71176 23.7778 5.57301 23.7816 5.38551V4.33926H23.5078V3.93426H23.7816V3.45801H24.3253V3.93426H24.7003V4.33926H24.6928Z" fill="black"/>
</svg>
