<svg width="142" height="77" viewBox="0 0 142 77" fill="none" xmlns="http://www.w3.org/2000/svg">
<path d="M51.4734 4.81411H49V6.09397H51.4734V12.8571H53V0.989011H51.4734V4.81411Z" fill="black"/>
<path d="M47.6865 3.96102V1.94288H46.1V3.96102C46.1 6.19998 44.8705 8.34483 43.114 9.17923L43 9.23353L43.9941 10.448L44.0688 10.4118C45.3246 9.78558 46.3261 8.56022 46.9092 6.94751C47.4772 8.46067 48.462 9.61544 49.7065 10.2182L49.7831 10.2544L50.7174 9.02357L50.6053 8.97289C48.86 8.18736 47.6865 6.17464 47.6865 3.96102ZM54.9592 7.02172H59.6924V7.76382H56.2485V8.96746H63.1251V9.60639H56.2766V12.7286H65.0161V11.5123H57.835V10.7431H64.6704V7.76382H61.2789V7.02172H66.0252V5.76921H54.9592V7.02172ZM60.4996 2.30669C62.2767 2.30669 63.2577 2.63249 63.2577 3.22616C63.2577 3.81984 62.2767 4.14564 60.4996 4.14564C58.7207 4.14564 57.7416 3.81984 57.7416 3.22616C57.7416 2.6343 58.7207 2.30669 60.4996 2.30669ZM60.4996 5.33481C63.2839 5.33481 64.8834 4.56556 64.8834 3.22616C64.8834 1.88677 63.2858 1.11933 60.4996 1.11933C57.7154 1.11933 56.1159 1.88677 56.1159 3.22616C56.1159 4.56556 57.7135 5.33481 60.4996 5.33481ZM75.3085 12.8571H76.8949V0.989011H75.3066L75.3085 12.8571ZM71.4423 3.97369V1.96822H69.8689V3.97369C69.8689 6.24523 68.5908 8.39008 66.7633 9.19009L66.6511 9.24077L67.5854 10.5132L67.6602 10.477C69.0187 9.83807 70.0819 8.58918 70.6799 6.94208C71.2685 8.448 72.3262 9.63354 73.6099 10.2182L73.6846 10.2544L74.6077 9.03443L74.4938 8.98376C72.6961 8.20003 71.4423 6.13844 71.4423 3.97369ZM86.2978 7.04344L86.1091 5.76558L86.0063 5.78368C84.2573 6.06785 82.7699 6.12758 80.819 6.12758V5.03797H84.93V1.54468H79.2326V2.82253H83.3809V3.83613H79.2587V7.40725H80.3724C82.7101 7.40725 84.3302 7.35295 86.1988 7.05973L86.2978 7.04344ZM87.1705 7.62626H88.7457V1.00168H87.1705V7.62626ZM87.1854 11.4236H82.2429V10.41H87.1854V11.4236ZM87.1854 9.16837H82.2429V7.97197H80.6695V12.6888H88.7439V7.97197H87.1854V9.16837ZM98.982 12.8571H100.57V0.989011H98.982V12.8571ZM92.6698 3.35105H95.4186V8.71769H92.6698V3.35105ZM91.1245 9.98468H96.9658V2.09673H91.1245V9.98468ZM103.461 5.28232C105.447 5.05064 107.036 4.28501 107.851 3.17005C108.665 4.28501 110.254 5.05245 112.24 5.28232L112.315 5.29137L112.868 4.08229L112.728 4.06962C110.407 3.84518 108.656 2.73566 108.656 1.48676V1.05236H107.043V1.48676C107.043 2.73566 105.294 3.84337 102.973 4.06781L102.833 4.08048L103.386 5.28956L103.461 5.28232ZM102.31 6.97104H107.043V7.75296H103.599V8.95298H110.476V9.61906H103.626V12.7286H112.367V11.5123H105.186V10.7575H112.021V7.75296H108.63V6.97104H113.391V5.71671H102.31V6.97104ZM119.161 5.92667L119.143 6.02984L120.688 6.19274L120.707 6.10224C121 4.58728 121 3.41983 121 2.64697V1.87953H114.759V3.15738H119.451C119.437 4.08674 119.339 5.01322 119.161 5.92667Z" fill="#090103"/>
<path d="M122.202 7.8501L122.084 6.66403L121.97 6.67883C120.715 6.86387 119.354 6.94158 118.176 6.98969V4.59904H116.533V7.03595C115.678 7.05815 114.854 7.05815 114.122 7.05815H114L114.181 8.36635H114.275C116.331 8.36635 119.377 8.31454 122.104 7.86305L122.202 7.8501ZM124.32 4.75632V0.989011H122.65V10.1186H124.322V6.07562H126V4.75632H124.32ZM117.59 9.12684H115.918V12.8571H124.727V11.5508H117.586L117.59 9.12684Z" fill="#090103"/>
<path d="M50.328 27.4494C49.2667 28.3416 47.8467 28.3547 47.4467 28.3547C46.9226 28.3547 45.2415 28.3286 44.0188 27.0536C43.8568 26.8798 43.7145 26.6888 43.5943 26.4843L44.9786 25.5285C45.3655 26.0997 46.0886 26.8427 47.7096 26.8427C47.7847 26.8427 48.0965 26.8427 48.3576 26.7811C48.5455 26.7437 49.4038 26.5085 49.4038 25.6909C49.4063 25.5048 49.3498 25.3225 49.2423 25.1701C48.9437 24.7744 48.1454 24.6624 47.7096 24.5634L46.6615 24.3282C46.2126 24.2274 45.728 24.1285 45.3279 23.9175C44.9166 23.7085 44.0695 23.1522 44.0695 21.8866C44.0695 21.6887 44.0939 21.1193 44.4057 20.5985C44.8058 19.9284 45.7637 19.1612 47.5481 19.1612C48.3332 19.1612 49.8772 19.2844 51.0999 20.9345L49.7401 21.937C49.4658 21.5039 48.8441 20.6359 47.4598 20.6359C47.3734 20.6359 46.2633 20.6228 45.9008 21.3041C45.8318 21.4256 45.7966 21.5631 45.799 21.7026C45.8013 21.842 45.841 21.9784 45.914 22.0975C46.1262 22.4559 46.6127 22.5679 47.4222 22.7415L48.3332 22.9394C49.1672 23.1261 50.0913 23.3743 50.6773 24.0557C50.9253 24.3282 51.1882 24.724 51.1882 25.5304C51.1882 26.3219 50.9384 26.9304 50.328 27.4494ZM52.6195 28.1307V19.3833H58.878V20.8468H54.2386V22.9039H58.491V24.3151H54.2404V26.656H59.1898V28.1307H52.6195ZM66.3179 21.8138C65.8577 21.0689 65.159 20.6601 64.2743 20.6601C63.7258 20.6601 63.3258 20.8337 63.153 20.9215C62.5294 21.2556 61.7555 22.0732 61.7555 23.7085C61.7555 24.0426 61.7668 25.6536 63.0027 26.4581C63.538 26.8053 64.0733 26.8315 64.2987 26.8315C64.4734 26.8315 64.8716 26.8184 65.3092 26.6205C65.9572 26.3219 66.8044 25.5789 66.8419 23.9325C66.8551 23.2138 66.7179 22.4447 66.3179 21.8138ZM67.2777 27.1022C66.8641 27.5473 66.3524 27.8911 65.7826 28.1064C65.2898 28.2787 64.7703 28.3628 64.248 28.3547C63.0027 28.3547 62.0541 27.9459 61.2315 27.0032C60.4088 26.0755 60.0613 24.9853 60.0613 23.7701C60.0613 23.4845 60.0726 22.8162 60.3224 22.0714C60.8952 20.326 62.4035 19.1612 64.2856 19.1612C65.9817 19.1612 66.9903 20.0777 67.4035 20.5481C67.8656 21.0708 68.5117 22.0844 68.5005 23.7589C68.5005 24.3021 68.4366 25.8515 67.2777 27.1022ZM77.0373 26.348C76.7518 27.2272 75.7413 28.3547 73.585 28.3547C72.5501 28.3547 71.5151 28.1064 70.792 27.3131C70.6793 27.2011 70.3787 26.8427 70.2322 26.3723C70.0951 25.9243 70.0951 25.5173 70.0951 24.5877V19.3833H71.7518V24.7613C71.7518 25.2821 71.7518 25.4669 71.8382 25.7282C72.0016 26.2491 72.4768 26.768 73.647 26.768C73.8592 26.768 75.0689 26.768 75.4314 25.7787C75.529 25.4912 75.5422 25.256 75.5422 24.6754V19.3833H77.1876V24.4272C77.1876 25.4296 77.1988 25.8515 77.0373 26.348ZM79.2311 28.1307V19.3833H80.8878V26.6448H84.3796V28.1307H79.2311ZM95.871 28.1307L96.0325 20.9439L94.126 28.1307H92.6422L90.7357 20.9439L90.8972 28.1307H89.2875V19.3833H91.6824L93.4029 25.8757L95.099 19.3833H97.4788V28.1307H95.871ZM106.429 26.348C106.141 27.2272 105.133 28.3547 102.973 28.3547C101.94 28.3547 100.907 28.1064 100.182 27.3131C99.9287 27.0435 99.7377 26.7225 99.6219 26.3723C99.4848 25.9243 99.4848 25.5173 99.4848 24.5877V19.3833H101.141V24.7613C101.141 25.2821 101.141 25.4669 101.23 25.7282C101.391 26.2491 101.865 26.768 103.037 26.768C103.249 26.768 104.459 26.768 104.821 25.7787C104.921 25.4912 104.934 25.256 104.934 24.6754V19.3833H106.577V24.4272C106.577 25.4296 106.592 25.8515 106.429 26.348ZM114.616 27.4494C113.557 28.3416 112.137 28.3547 111.737 28.3547C111.213 28.3547 109.53 28.3286 108.309 27.0536C108.147 26.8796 108.005 26.6887 107.885 26.4843L109.269 25.5285C109.656 26.0997 110.377 26.8427 112 26.8427C112.075 26.8427 112.385 26.8427 112.648 26.7811C112.834 26.7437 113.694 26.5085 113.694 25.6909C113.696 25.5049 113.64 25.3228 113.533 25.1701C113.232 24.7744 112.436 24.6624 112 24.5634L110.952 24.3282C110.501 24.2274 110.016 24.1285 109.618 23.9175C109.205 23.7085 108.36 23.1522 108.36 21.8866C108.36 21.6887 108.382 21.1193 108.694 20.5985C109.094 19.9284 110.054 19.1612 111.836 19.1612C112.622 19.1612 114.167 19.2844 115.39 20.9345L114.03 21.937C113.756 21.5039 113.132 20.6359 111.75 20.6359C111.662 20.6359 110.552 20.6228 110.191 21.3041C110.123 21.4255 110.088 21.5628 110.092 21.7017C110.092 21.8511 110.129 21.9743 110.204 22.0975C110.415 22.4559 110.901 22.5679 111.711 22.7415L112.622 22.9394C113.457 23.1261 114.38 23.3743 114.966 24.0557C115.216 24.3282 115.477 24.724 115.477 25.5304C115.477 26.3219 115.229 26.9304 114.616 27.4494ZM116.91 28.1307V19.3833H123.166V20.8468H118.529V22.9039H122.781V24.3151H118.529V26.656H123.478V28.1307H116.91ZM131.692 26.348C131.406 27.2272 130.396 28.3547 128.24 28.3547C127.205 28.3547 126.17 28.1064 125.447 27.3131C125.334 27.2011 125.033 26.8427 124.887 26.3723C124.75 25.9243 124.75 25.5173 124.75 24.5877V19.3833H126.406V24.7613C126.406 25.2821 126.406 25.4669 126.493 25.7282C126.656 26.2491 127.131 26.768 128.302 26.768C128.514 26.768 129.722 26.768 130.086 25.7787C130.184 25.4912 130.197 25.256 130.197 24.6754V19.3833H131.842V24.4272C131.842 25.4296 131.853 25.8515 131.692 26.348ZM140.392 28.1307L140.554 20.9439L138.647 28.1307H137.163L135.255 20.9439L135.418 28.1307H133.809V19.3833H136.204L137.924 25.8757L139.618 19.3833H142V28.1307H140.392ZM50.1664 34.1135C49.7044 33.3687 49.0056 32.9599 48.1191 32.9599C47.5725 32.9599 47.1724 33.1335 46.9996 33.2212C46.376 33.5554 45.6022 34.373 45.6022 36.0082C45.6022 36.3443 45.6153 37.9534 46.8494 38.7579C47.3865 39.1051 47.92 39.1313 48.1454 39.1313C48.3201 39.1313 48.7183 39.1182 49.1559 38.9203C49.8039 38.6216 50.651 37.8787 50.6886 36.2323C50.7017 35.5136 50.5646 34.7445 50.1664 34.1135ZM51.1244 39.4019C50.7109 39.8471 50.1991 40.1909 49.6292 40.4062C49.1371 40.5785 48.6182 40.6625 48.0965 40.6545C46.8494 40.6545 45.9008 40.2457 45.0781 39.3049C44.2554 38.3752 43.9079 37.2851 43.9079 36.0698C43.9079 35.7842 43.9192 35.116 44.169 34.373C44.7419 32.6258 46.2502 31.4609 48.1322 31.4609C49.8283 31.4609 50.8389 32.3775 51.2502 32.8479C51.7104 33.3706 52.3584 34.3842 52.3471 36.0586C52.3471 36.6019 52.2833 38.1512 51.1244 39.4019ZM55.5872 33.1466V35.3269H59.263V36.7269H55.5872V40.4324H53.9531V31.6812H59.7758V33.1447L55.5872 33.1466ZM67.6026 33.2567L66.3817 37.2851H68.8104L67.6026 33.2567ZM69.7589 40.4324L69.248 38.7206H65.9441L65.4332 40.4324H63.662L66.6428 31.6831H68.5117L71.517 40.4324H69.7589ZM76.9622 33.3556C76.6767 33.1708 76.3386 33.0962 75.6417 33.0962H74.3081V35.8216H74.8942C75.8521 35.8216 76.4532 35.8216 76.8495 35.6125C77.0593 35.5004 77.2328 35.3315 77.3499 35.1253C77.4669 34.9191 77.5227 34.6841 77.5106 34.4477C77.522 34.2341 77.4774 34.0212 77.3813 33.8298C77.2851 33.6384 77.1408 33.475 76.9622 33.3556ZM77.5257 40.4305L75.7901 37.1843H74.3063V40.4324H72.6721V31.6812H76.2785C76.6767 31.6812 77.86 31.7185 78.6451 32.7471C79.156 33.4172 79.1823 34.1733 79.1823 34.457C79.1823 34.5933 79.1692 35.0282 79.0189 35.437C78.8831 35.7773 78.6711 36.0824 78.3991 36.3292C78.127 36.5759 77.802 36.7579 77.4487 36.8613L79.4058 40.4286L77.5257 40.4305ZM84.0546 33.1578V40.4305H82.4092V33.1578H80.0144V31.6831H86.4832V33.1578H84.0546Z" fill="#909090"/>
<path d="M53 64.2069V60.3683L52.7283 60.1357L52.9157 59.8293L51.7406 56.1798L51.4108 56.0418L51.4932 55.692L49.2574 52.5889C49.1131 52.5776 49.0456 52.57 48.9013 52.5606L48.8751 52.2013L47.3345 51.0743L45.764 49.9208L45.4379 49.9738L45.3855 49.6447L40.4153 46.0009L40.0892 46.0539L40.0367 45.7229L35.0666 42.0791L34.7405 42.132L34.688 41.8011L29.7179 38.1592L29.3899 38.2102L29.3393 37.8812L24.3691 34.2374L24.0412 34.2903L23.9906 33.9594L19.0204 30.3174L18.6924 30.3685L18.6418 30.0395L13.6717 26.3956L13.3437 26.4486L13.2931 26.1177L8.32295 22.4738L8.1599 22.5003L7.99498 22.5268L7.94438 22.1959L6.99982 21.5057L5.78352 20.615L5.47992 20.6396L5.50615 20.3333L4.22238 18.552L3.92815 18.4802L4.04434 18.1965L3.36966 16.0598L3.11103 15.8971L3.30782 15.6645V12.97L3.07355 12.7336L3.30782 12.4972V7.19692L3.07355 6.96055L3.30782 6.72418V5.09419L3.13352 4.86539L3.26471 4.80866L3.3959 4.75571L3.78946 4.0693L3.75198 3.78566L4.03497 3.82348L4.71528 3.42638L4.82397 3.16165C4.90831 3.22594 4.96641 3.26944 5.04887 3.33562H6.66623L6.9005 3.09925L7.13476 3.33562H13.2781C13.3681 3.24107 13.4205 3.19191 13.5124 3.09925L13.7466 3.33562H19.89C19.98 3.24107 20.0324 3.19191 20.1224 3.09925L20.3585 3.33562H26.5019C26.5918 3.24107 26.6443 3.19191 26.7343 3.09925L26.9685 3.33562H33.1119L33.3461 3.09925V0.236368L33.1119 0H26.9704L26.7361 0.236368L26.5019 0H20.3604L20.1243 0.236368L19.89 0H13.7466L13.5124 0.236368L13.2781 0H7.13476L6.89862 0.236368L6.66623 0H4.28985L4.06496 0.296878L3.72012 0.153166L1.72419 1.31609L1.67546 1.68861L1.30813 1.73777L0.151803 3.75163L0.294236 4.09767L0 4.32458V6.72607L0.234265 6.96244L0.00187412 7.19692V12.4972L0.236139 12.7336C0.146181 12.8281 0.0955799 12.8773 0.00187412 12.9719V16.1203L0.271747 16.3547L0.0843352 16.6592L1.04013 19.6601L1.36998 19.7981H1.3681L1.28564 20.148L3.09417 22.661L3.45025 22.6894L3.47836 23.0487L4.7209 23.9601L6.00092 24.8961L6.32702 24.8451L6.37949 25.1741L11.3496 28.8179L11.6757 28.765L11.7282 29.0959L16.6984 32.7397L17.0245 32.6868L17.0769 33.0177L22.0471 36.6597L22.3751 36.6086L22.4257 36.9376L27.3958 40.5815L27.7238 40.5285L27.7744 40.8594L32.7446 44.5014L33.0725 44.4503L33.1231 44.7794L38.0933 48.4232L38.4213 48.3703L38.4719 48.7012L43.442 52.345L43.6182 52.3166L43.7681 52.2921L43.8206 52.6211L45.393 53.7746L46.568 54.6349L46.8698 54.6122L46.8473 54.9167L48.5546 57.2879L48.8507 57.3598L48.7345 57.6434L49.6341 60.4307L49.8908 60.5914L49.6922 60.8259V63.7568L49.8908 63.9894L49.6322 64.1501L48.7345 66.9374L48.8507 67.221L48.5546 67.2929L46.8492 69.6641L46.8716 69.9705L46.568 69.9459L44.2179 71.6704L44.1467 71.9673L43.8656 71.8501L41.1031 72.7558C41.0495 72.8431 40.9964 72.9308 40.9438 73.0187L40.7133 72.8182H37.8084L37.576 73.0187L37.4167 72.7558L34.6524 71.8482L34.3713 71.9673L34.3019 71.6685L31.5545 69.6547L31.2284 69.7076L31.1759 69.3786L26.2058 65.7348L25.8778 65.7877L25.8272 65.4568L20.857 61.8129L20.5291 61.8659L20.4785 61.535L15.5083 57.893L15.1803 57.9441L13.5124 60.2605L13.5649 60.5914L18.535 64.2334L18.863 64.1823L18.9136 64.5113L23.8837 68.1552L24.2117 68.1022L24.2642 68.4331L29.2325 72.077L29.5604 72.024L29.6129 72.3549L32.7202 74.6335L33.0669 74.5503L33.2056 74.8812L36.8226 76.0687L37.1281 75.8796L37.3586 76.1538H41.1631L41.3936 75.8815L41.6972 76.0687L45.3143 74.8812L45.4511 74.5503L45.7978 74.6335L48.8751 72.3795L48.9032 72.0202L49.2593 71.9919L51.4932 68.887L51.4108 68.5371L51.7406 68.3991L52.9157 64.7496L52.7283 64.4433L53 64.2069Z" fill="#040000"/>
</svg>
