<svg width="133" height="13" viewBox="0 0 133 13" fill="none" xmlns="http://www.w3.org/2000/svg">
<path d="M16.8959 0.800014L12.8959 12.016H11.3119L9.82386 8.06402L8.59186 4.30401L7.35986 8.08002L5.88786 12.016H4.31986L0.255859 0.800014H2.25586L5.10386 9.42402L7.99986 0.800014H9.15186L12.1119 9.42402L14.8959 0.800014H16.8959Z" fill="white"/>
<path d="M23.3549 0.592014C27.1789 0.608015 29.0509 3.42402 29.0509 6.44802C29.0509 9.47202 27.2109 12.24 23.3229 12.24C19.4349 12.24 17.5949 9.40802 17.5949 6.46402C17.5949 3.05602 19.9789 0.592014 23.3549 0.592014ZM19.3709 6.48001C19.4029 8.46402 20.5549 10.592 23.3229 10.592C26.1069 10.592 27.2749 8.62402 27.2749 6.48001C27.2749 4.41601 26.0909 2.27201 23.3549 2.22402C20.7629 2.22402 19.3709 4.03201 19.3709 6.48001Z" fill="white"/>
<path d="M36.2455 0.592014C40.0695 0.608015 41.9415 3.42402 41.9415 6.44802C41.9415 9.47202 40.1015 12.24 36.2135 12.24C32.3255 12.24 30.4855 9.40802 30.4855 6.46402C30.4855 3.05602 32.8695 0.592014 36.2455 0.592014ZM32.2615 6.48001C32.2935 8.46402 33.4455 10.592 36.2135 10.592C38.9975 10.592 40.1655 8.62402 40.1655 6.48001C40.1655 4.41601 38.9815 2.27201 36.2455 2.22402C33.6535 2.22402 32.2615 4.03201 32.2615 6.48001Z" fill="white"/>
<path d="M47.2961 0.800014H52.6881V7.36001C52.6881 10.224 50.8321 12.208 47.8881 12.208C45.1041 12.208 43.1041 10.48 43.1041 7.45602H44.8641C44.8641 9.42402 45.9361 10.528 47.8881 10.528C49.8401 10.528 50.8961 9.21602 50.8961 7.36001V2.46402H47.2961V0.800014Z" fill="white"/>
<path d="M57.1214 12H55.3454V0.800014H57.1214V12Z" fill="white"/>
<path d="M61.3151 0.800014L67.6671 8.76801V0.800014H69.4591V12H68.0991L61.7471 4.09601V12H59.9391V0.800014H61.3151Z" fill="white"/>
<path d="M79.1086 0.800014H84.5006V7.36001C84.5006 10.224 82.6446 12.208 79.7006 12.208C76.9166 12.208 74.9166 10.48 74.9166 7.45602H76.6766C76.6766 9.42402 77.7486 10.528 79.7006 10.528C81.6526 10.528 82.7086 9.21602 82.7086 7.36001V2.46402H79.1086V0.800014Z" fill="white"/>
<path d="M95.4299 10.24V12H87.1579C87.1579 8.27202 87.1579 4.52802 87.1579 0.800014H95.3819V2.54401H88.9499V5.56802H95.1259V7.23202H88.9499V10.24H95.4299Z" fill="white"/>
<path d="M102.699 0.592014C106.523 0.608015 108.395 3.42402 108.395 6.44802C108.395 9.47202 106.555 12.24 102.667 12.24C98.7786 12.24 96.9386 9.40802 96.9386 6.46402C96.9386 3.05602 99.3226 0.592014 102.699 0.592014ZM98.7146 6.48001C98.7466 8.46402 99.8986 10.592 102.667 10.592C105.451 10.592 106.619 8.62402 106.619 6.48001C106.619 4.41601 105.435 2.27201 102.699 2.22402C100.107 2.22402 98.7146 4.03201 98.7146 6.48001Z" fill="white"/>
<path d="M111.893 0.800014L118.245 8.76801V0.800014H120.037V12H118.677L112.325 4.09601V12H110.517V0.800014H111.893Z" fill="white"/>
<path d="M132.205 2.22402L131.085 3.37601C130.285 2.59202 129.101 2.17601 128.061 2.17601C125.437 2.17601 123.917 4.14401 123.933 6.51201C123.933 8.56002 125.149 10.544 128.061 10.544C129.021 10.544 129.901 10.304 130.797 9.55202V7.28001H127.677V5.68002H132.461V10.272C131.341 11.504 129.949 12.224 128.061 12.224C123.949 12.224 122.173 9.48802 122.173 6.51201C122.173 3.28001 124.237 0.528015 128.061 0.528015C129.549 0.528015 131.053 1.08801 132.205 2.22402Z" fill="white"/>
</svg>
