<svg width="200" height="20" viewBox="0 0 200 20" fill="none" xmlns="http://www.w3.org/2000/svg">
<g clip-path="url(#clip0_92_360)">
<path d="M6.81535 17.5524L0.322011 4.48838C-0.455837 2.92473 0.237463 1.05002 1.86925 0.301826C3.5095 -0.446373 5.46257 0.226166 6.24042 1.78982L12.7422 14.8539C13.5201 16.4175 12.8268 18.2922 11.1865 19.0404C9.54628 19.7886 7.5932 19.1161 6.81535 17.5524Z" fill="#0BAEFF"/>
<path d="M17.7385 19.0413C16.0983 18.2931 15.405 16.4269 16.1828 14.8548L19.142 8.90283L15.5994 1.79073C14.8216 0.22708 12.8601 -0.437052 11.2283 0.30274C9.58804 1.05094 8.89474 2.91723 9.67258 4.48929L16.1744 17.5534C16.6648 18.5369 17.6202 19.1674 18.6686 19.3104C18.3557 19.2683 18.0345 19.1759 17.7301 19.0413H17.7385Z" fill="#34DAE5"/>
<path d="M27.0558 0.30274C25.4156 -0.445459 23.4625 0.22708 22.6846 1.79073L19.142 8.90283L22.1012 14.8548C22.8791 16.4184 22.1858 18.2931 20.5455 19.0413C20.2412 19.1759 19.9283 19.2683 19.6071 19.3104C20.6555 19.1674 21.6109 18.5369 22.1012 17.5534L28.603 4.48929C29.3809 2.92564 28.6876 1.05094 27.0473 0.30274H27.0558Z" fill="#0BAEFF"/>
<path d="M22.1012 14.8548L19.142 8.90283L16.1828 14.8548C15.405 16.4184 16.0983 18.2931 17.7385 19.0413C18.0429 19.1759 18.3557 19.2683 18.677 19.3104C18.7108 19.3104 18.7447 19.3104 18.7785 19.3188C18.8461 19.3188 18.9138 19.3356 18.9899 19.3356C19.0406 19.3356 19.0913 19.3356 19.1505 19.3356C19.2012 19.3356 19.252 19.3356 19.3111 19.3356C19.3788 19.3356 19.4464 19.3272 19.5225 19.3188C19.5563 19.3188 19.5901 19.3188 19.624 19.3104C19.9368 19.2683 20.2581 19.1759 20.5625 19.0413C22.2027 18.2931 22.896 16.4268 22.1182 14.8548L22.1012 14.8548Z" fill="#8FFFF1"/>
<path d="M38.4783 2.26151V6.11179H42.376V8.50771H38.453V14.8296C38.453 16.2251 39.0786 17.0069 40.3722 17.0069C40.9133 17.0069 41.539 16.822 42.0801 16.553L42.8918 18.9237C41.9702 19.3272 41.1585 19.5121 40.2116 19.5121C37.32 19.5962 35.6629 17.9485 35.6629 14.8296V8.50771H33.0926V6.11179H35.6629V2.55574L38.4783 2.26151Z" fill="#34DAE5"/>
<path d="M47.7871 6.08657L47.9732 7.83517C48.9455 6.13701 50.4589 5.79234 51.8962 5.79234C53.1983 5.79234 54.4411 6.2463 55.1936 6.91884L53.9254 9.33998C53.249 8.80195 52.598 8.53293 51.5749 8.53293C49.6557 8.53293 47.9732 9.71828 47.9732 12.1646V19.344H45.183V6.08657H47.7871Z" fill="#34DAE5"/>
<path d="M67.4278 6.08657H70.1334V19.344H67.4785L67.3433 17.1919C66.4471 18.89 64.3925 19.6971 62.7438 19.6971C58.8461 19.7223 55.8954 17.2255 55.8954 12.7027C55.8954 8.17985 58.956 5.79234 62.7945 5.79234C64.6884 5.79234 66.4978 6.68345 67.3433 8.18825L67.4278 6.08657ZM58.6855 12.7027C58.6855 15.4433 60.6301 17.1162 63.0144 17.1162C68.7806 17.1162 68.7806 8.32276 63.0144 8.32276C60.6301 8.32276 58.6855 9.98729 58.6855 12.7111V12.7027Z" fill="#34DAE5"/>
<path d="M86.9078 6.05294L81.2515 19.3944H78.1909L72.5092 6.05294H75.5952L77.3792 10.332L79.7297 16.4941L81.8434 10.87L83.8472 6.05294H86.9078Z" fill="#34DAE5"/>
<path d="M90.8309 13.7451C91.0761 15.7627 92.7502 17.0826 95.1852 17.0826C96.5379 17.0826 98.2458 16.5698 99.0575 15.6534L100.867 17.402C99.4887 18.9068 97.189 19.6634 95.1344 19.6634C90.7548 19.6634 87.9393 16.8892 87.9393 12.6438C87.9393 8.39842 90.7802 5.73349 94.9484 5.73349C99.1167 5.73349 102.169 8.33958 101.662 13.7535H90.8394L90.8309 13.7451ZM98.9729 11.408C98.8123 9.30635 97.2651 8.20507 95.0245 8.20507C92.9954 8.20507 91.3213 9.30635 90.8816 11.408H98.9729Z" fill="#34DAE5"/>
<path d="M107.386 0.538129V19.344H104.595V0.538129H107.386Z" fill="#34DAE5"/>
<path d="M137.096 19.3692H134.416L131.896 12.7279L129.816 6.40603L127.736 12.7531L125.251 19.3692H122.596L115.722 0.512909H119.104L123.923 15.0145L128.819 0.512909H130.763L135.769 15.0145L140.478 0.512909H143.86L137.096 19.3692Z" fill="#2B76E2"/>
<path d="M155.468 6.08657H158.174V19.344H155.519L155.384 17.1919C154.488 18.89 152.433 19.6971 150.784 19.6971C146.887 19.7223 143.936 17.2255 143.936 12.7027C143.936 8.17985 146.997 5.79234 150.835 5.79234C152.729 5.79234 154.538 6.68345 155.384 8.18825L155.468 6.08657ZM146.726 12.7027C146.726 15.4433 148.671 17.1162 151.055 17.1162C156.821 17.1162 156.821 8.32276 151.055 8.32276C148.671 8.32276 146.726 9.98729 146.726 12.7111V12.7027Z" fill="#2B76E2"/>
<path d="M164.853 0.538129V19.344H162.063V0.538129H164.853Z" fill="#2B76E2"/>
<path d="M171.643 0.538129V19.344H168.852V0.538129H171.643Z" fill="#2B76E2"/>
<path d="M177.62 13.7451C177.865 15.7627 179.539 17.0826 181.974 17.0826C183.327 17.0826 185.035 16.5698 185.847 15.6534L187.656 17.402C186.278 18.9068 183.978 19.6634 181.924 19.6634C177.544 19.6634 174.729 16.8892 174.729 12.6438C174.729 8.39842 177.569 5.73349 181.738 5.73349C185.906 5.73349 188.958 8.33958 188.451 13.7535H177.629L177.62 13.7451ZM185.762 11.408C185.602 9.30635 184.054 8.20507 181.814 8.20507C179.785 8.20507 178.111 9.30635 177.671 11.408H185.762Z" fill="#2B76E2"/>
<path d="M195.587 2.26151V6.11179H199.484V8.50771H195.561V14.8296C195.561 16.2251 196.187 17.0069 197.481 17.0069C198.022 17.0069 198.647 16.822 199.189 16.553L200 18.9237C199.079 19.3272 198.267 19.5121 197.32 19.5121C194.428 19.5962 192.771 17.9485 192.771 14.8296V8.50771H190.201V6.11179H192.771V2.55574L195.587 2.26151Z" fill="#2B76E2"/>
</g>
<defs>
<clipPath id="clip0_92_360">
<rect width="200" height="19.697" fill="white"/>
</clipPath>
</defs>
</svg>
